<?xml version="1.0" encoding="UTF-8" standalone="no"?>
<svg
   xmlns:dc="http://purl.org/dc/elements/1.1/"
   xmlns:cc="http://creativecommons.org/ns#"
   xmlns:rdf="http://www.w3.org/1999/02/22-rdf-syntax-ns#"
   xmlns:svg="http://www.w3.org/2000/svg"
   xmlns="http://www.w3.org/2000/svg"
   xmlns:sodipodi="http://sodipodi.sourceforge.net/DTD/sodipodi-0.dtd"
   xmlns:inkscape="http://www.inkscape.org/namespaces/inkscape"
   version="1.1"
   id="svg2"
   xml:space="preserve"
   width="566.92932"
   height="566.92932"
   viewBox="0 0 566.92932 566.92932"
   sodipodi:docname="MATCOSEN LOGO by JLC.ai"><metadata
     id="metadata8"><rdf:RDF><cc:Work
         rdf:about=""><dc:format>image/svg+xml</dc:format><dc:type
           rdf:resource="http://purl.org/dc/dcmitype/StillImage" /></cc:Work></rdf:RDF></metadata><defs
     id="defs6"><clipPath
       clipPathUnits="userSpaceOnUse"
       id="clipPath22"><path
         d="M 0,425.197 H 425.197 V 0 H 0 Z"
         id="path20" /></clipPath><clipPath
       clipPathUnits="userSpaceOnUse"
       id="clipPath214"><path
         d="M 18.4553,255.614 H 106.138 V 199.755 H 18.4553 Z"
         id="path212" /></clipPath><clipPath
       clipPathUnits="userSpaceOnUse"
       id="clipPath254"><path
         d="m 244.737,235.968 h 38.426 v -49.491 h -38.426 z"
         id="path252" /></clipPath><clipPath
       clipPathUnits="userSpaceOnUse"
       id="clipPath274"><path
         d="m 246.529,235.968 h 36.634 v -48.114 h -36.634 z"
         id="path272" /></clipPath></defs><sodipodi:namedview
     pagecolor="#ffffff"
     bordercolor="#666666"
     borderopacity="1"
     objecttolerance="10"
     gridtolerance="10"
     guidetolerance="10"
     inkscape:pageopacity="0"
     inkscape:pageshadow="2"
     inkscape:window-width="640"
     inkscape:window-height="480"
     id="namedview4" /><g
     id="g10"
     inkscape:groupmode="layer"
     inkscape:label="MATCOSEN LOGO by JLC"
     transform="matrix(1.3333333,0,0,-1.3333333,0,566.92933)"><path
       d="M 407.445,156.301 H 15.307 v 16.063 h 392.138 z"
       style="fill:#be1622;fill-opacity:1;fill-rule:nonzero;stroke:none"
       id="path12" /><path
       d="M 381.271,152.725 H 44.109 v 3.576 h 337.162 z"
       style="fill:#211b46;fill-opacity:1;fill-rule:nonzero;stroke:none"
       id="path14" /><g
       id="g16"><g
         id="g18"
         clip-path="url(#clipPath22)"><g
           id="g24"
           transform="translate(68.6553,170.5015)"><path
             d="m 0,0 c 1.695,0 1.936,0.316 2.138,0.316 0.722,0 1.025,-1.55 1.025,-2.247 0,-0.522 -0.164,-1.139 -0.658,-1.139 -1,0 -0.19,1.519 -2.594,1.519 -1.405,0 -1.265,-0.316 -1.265,-2.137 0,-0.916 0.038,-0.948 0.81,-0.948 0.961,0 0.24,1.756 1.139,1.756 0.733,0 0.784,-1.788 0.784,-2.405 0,-0.65 -0.088,-2.547 -0.848,-2.547 -0.784,0 0,1.661 -1.278,1.661 -0.531,0 -0.519,-0.601 -0.519,-1.107 0,-2.31 0.127,-2.201 1.455,-2.201 2.594,0 1.861,2.232 2.899,2.232 0.404,0 0.607,-0.569 0.607,-1.013 0,-1.076 -0.684,-3.006 -1.19,-3.006 -0.088,0 -0.291,0.048 -0.556,0.095 -0.279,0.032 -0.633,0.079 -1.064,0.079 h -5.201 c -0.835,0 -0.847,0.475 -0.847,0.68 0,0.871 0.86,0.175 0.949,1.851 0.152,2.88 0.165,2.596 0.037,5.459 -0.088,2.42 -1.05,1.171 -1.05,2.294 0,0.966 1.063,0.808 1.582,0.808 z"
             style="fill:#ffffff;fill-opacity:1;fill-rule:nonzero;stroke:none"
             id="path26" /></g><g
           id="g28"
           transform="translate(76.6563,165.7222)"><path
             d="m 0,0 c -0.229,0 -0.823,-0.284 -0.823,-1.945 0,-1.678 0.507,-2.547 1.013,-2.547 0.645,0 0.543,1.486 0.543,1.993 C 0.733,-1.819 0.861,0 0,0 m -0.203,1.773 c 0.912,0 1.772,-0.38 2.101,-0.38 0.519,0 0.873,0.38 1.367,0.38 0.316,0 0.569,-0.127 0.569,-0.57 0,-0.712 -0.253,-2.136 -0.253,-5.997 0,-0.553 0.025,-1.091 0.039,-1.644 0.037,-1.805 0.657,-1.045 0.657,-1.931 0,-0.996 -1.164,-1.061 -1.734,-1.061 -0.658,0 -2.809,0.191 -2.809,1.409 0,0.791 0.886,0.316 0.886,1.598 0,0.158 0,0.427 -0.178,0.427 -0.252,0 -0.683,-0.538 -1.556,-0.538 -1.873,0 -2.885,2.025 -2.885,4.178 0,2.737 1.759,4.129 3.796,4.129"
             style="fill:#ffffff;fill-opacity:1;fill-rule:nonzero;stroke:none"
             id="path30" /></g><g
           id="g32"
           transform="translate(84.8716,162.8277)"><path
             d="m 0,0 c 0,-0.633 0.038,-1.614 0.722,-1.614 0.91,0 0.784,1.487 0.784,2.247 0,0.521 0.013,1.202 -0.051,1.709 -0.101,0.79 -0.721,0.521 -0.721,1.185 0,0.934 2.544,1.092 3.024,1.092 0.456,0 0.646,-0.332 0.646,-0.885 0,-0.506 -0.026,-0.997 -0.026,-1.504 v -3.18 c 0,-0.949 0.697,-0.506 0.697,-1.265 0,-1.076 -2.24,-1.377 -2.936,-1.377 -0.975,0 -0.329,0.949 -0.836,0.949 -0.139,0 -0.341,-0.237 -0.645,-0.474 -0.304,-0.237 -0.708,-0.475 -1.265,-0.475 -2.405,0 -2.202,2.373 -2.202,4.746 0,2.422 -0.874,1.361 -0.874,2.406 0,1.012 3.19,1.059 3.291,1.059 C -0.038,4.619 0,4.414 0,4.019 Z"
             style="fill:#ffffff;fill-opacity:1;fill-rule:nonzero;stroke:none"
             id="path34" /></g><g
           id="g36"
           transform="translate(91.4297,167.9537)"><path
             d="m 0,0 c -0.532,0 -1.102,0.301 -1.102,1.076 0,1.044 1.671,1.472 2.316,1.472 0.507,0 1.228,-0.206 1.228,-0.997 C 2.442,0.316 0.721,0 0,0 m 2.505,-5.617 c 0,-1.867 0.747,-1.186 0.747,-2.026 0,-1.075 -1.607,-1.075 -2.177,-1.075 -2.177,0 -2.265,0.616 -2.265,0.997 0,0.57 0.519,0.602 0.671,1.091 0.165,0.554 0.19,2.849 0.051,3.434 -0.115,0.554 -0.76,0.38 -0.76,1.092 0,1.123 3.214,1.597 3.341,1.597 0.379,0 0.392,-0.363 0.392,-0.696 z"
             style="fill:#ffffff;fill-opacity:1;fill-rule:nonzero;stroke:none"
             id="path38" /></g><g
           id="g40"
           transform="translate(99.4033,165.1529)"><path
             d="m 0,0 c -0.456,0 -0.608,-0.237 -0.608,-3.117 0,-0.522 0.202,-0.712 0.645,-0.712 0.785,0 0.886,1.06 0.886,1.82 C 0.923,-1.25 0.797,0 0,0 m -3.468,-2.61 c 0,1.661 -0.075,2.024 -0.139,2.103 -0.164,0.207 -0.848,0 -0.848,0.903 0,1.076 2.607,1.898 3.543,1.898 0.304,0 0.355,-0.126 0.355,-0.475 0,-0.11 0.013,-0.331 0.139,-0.331 0.177,0 0.886,0.855 1.923,0.855 1.658,0 2.544,-2.074 2.544,-3.925 0,-2.12 -1.202,-4.383 -3.049,-4.383 -0.596,0 -1.19,0.396 -1.304,0.396 -0.177,0 -0.202,-0.332 -0.202,-0.507 0,-1.201 0.784,-0.822 0.784,-1.598 0,-0.885 -1.152,-0.996 -1.645,-0.996 -1.696,0 -3.025,0.775 -3.025,1.582 0,0.712 0.519,0.443 0.747,1.061 0.126,0.332 0.177,0.791 0.177,2.547 z"
             style="fill:#ffffff;fill-opacity:1;fill-rule:nonzero;stroke:none"
             id="path42" /></g><g
           id="g44"
           transform="translate(108.1123,165.0426)"><path
             d="m 0,0 c 0,0.569 -0.279,1.013 -0.748,1.013 -0.417,0 -0.758,-0.538 -0.758,-1.044 0,-0.571 0.429,-0.445 0.758,-0.445 C -0.406,-0.476 0,-0.569 0,0 m -1.102,-1.994 c -0.139,0 -0.342,0.048 -0.342,-0.221 0,-0.792 0.823,-1.456 1.418,-1.456 0.949,0 1.418,0.713 1.683,0.713 0.266,0 0.493,-0.491 0.493,-0.792 0,-1.218 -1.784,-2.104 -2.923,-2.104 -2.278,0 -3.454,2.056 -3.454,4.098 0,2.436 1.657,4.209 3.556,4.209 2.15,0 3.101,-2.074 3.101,-3.26 0,-1.045 -0.381,-1.187 -0.786,-1.187 z"
             style="fill:#ffffff;fill-opacity:1;fill-rule:nonzero;stroke:none"
             id="path46" /></g><g
           id="g48"
           transform="translate(111.6069,163.8238)"><path
             d="m 0,0 c 0,1.013 -0.165,1.298 -0.292,1.439 -0.164,0.175 -0.341,0.159 -0.341,0.571 0,1.171 3.138,1.613 3.164,1.613 0.316,0 0.342,-0.348 0.342,-0.68 0,-0.19 -0.051,-0.728 0.214,-0.728 0.127,0 0.329,0.348 0.684,0.712 0.354,0.348 0.86,0.696 1.606,0.696 1.507,0 1.519,-1.408 1.785,-1.408 0.102,0 0.329,0.348 0.696,0.712 0.38,0.348 0.887,0.696 1.532,0.696 1.201,0 1.949,-0.822 1.949,-2.373 v -3.338 c 0,-0.918 0.468,-0.997 0.468,-1.456 0,-0.996 -1.443,-1.044 -1.936,-1.044 -0.418,0 -1.887,0.11 -1.887,0.934 0,0.586 0.444,0.569 0.444,1.487 v 1.424 c 0,0.664 0.063,1.993 -0.658,1.993 -0.709,0 -0.645,-1.075 -0.645,-1.661 v -0.981 c 0,-1.946 0.455,-1.614 0.455,-2.199 0,-0.981 -1.519,-0.997 -1.974,-0.997 -1.911,0 -2.013,0.443 -2,0.886 0.013,0.839 0.645,0.175 0.608,2.056 v 0.903 c 0,0.569 0.063,1.993 -0.658,1.993 -0.709,0 -0.645,-1.075 -0.645,-1.661 v -1.281 c 0,-1.456 0.34,-1.361 0.34,-1.931 0,-0.411 -0.29,-0.965 -2.024,-0.965 -0.493,0 -1.987,-0.016 -1.987,0.823 0,0.712 0.76,0.331 0.76,2.31 z"
             style="fill:#ffffff;fill-opacity:1;fill-rule:nonzero;stroke:none"
             id="path50" /></g><g
           id="g52"
           transform="translate(127.9985,165.0426)"><path
             d="m 0,0 c 0,0.569 -0.279,1.013 -0.747,1.013 -0.417,0 -0.759,-0.538 -0.759,-1.044 0,-0.571 0.43,-0.445 0.759,-0.445 C -0.405,-0.476 0,-0.569 0,0 m -1.102,-1.994 c -0.139,0 -0.341,0.048 -0.341,-0.221 0,-0.792 0.822,-1.456 1.418,-1.456 0.949,0 1.417,0.713 1.682,0.713 0.266,0 0.494,-0.491 0.494,-0.792 0,-1.218 -1.785,-2.104 -2.923,-2.104 -2.278,0 -3.455,2.056 -3.455,4.098 0,2.436 1.658,4.209 3.556,4.209 2.151,0 3.101,-2.074 3.101,-3.26 0,-1.045 -0.38,-1.187 -0.785,-1.187 z"
             style="fill:#ffffff;fill-opacity:1;fill-rule:nonzero;stroke:none"
             id="path54" /></g><g
           id="g56"
           transform="translate(134.3789,162.0523)"><path
             d="m 0,0 c 0,-1.535 0.43,-1.267 0.43,-1.867 0,-0.981 -1.683,-0.949 -2.202,-0.949 -0.506,0 -1.797,0 -1.797,0.949 0,0.759 0.582,0.079 0.62,1.63 l 0.051,2.373 c 0.024,1.171 -0.747,0.791 -0.747,1.63 0,0.838 2.911,1.629 3.164,1.629 0.278,0 0.456,-0.3 0.456,-0.617 0,-0.095 -0.014,-0.189 -0.014,-0.285 0,-0.19 0.064,-0.411 0.253,-0.411 0.203,0 0.317,0.332 0.57,0.665 0.253,0.315 0.633,0.648 1.355,0.648 2.618,0 2.176,-3.211 2.302,-5.617 0.064,-1.25 0.583,-0.965 0.583,-1.645 0,-0.284 0.05,-0.949 -2.329,-0.949 -0.455,0 -1.671,-0.032 -1.671,0.853 0,0.57 0.418,0.301 0.481,1.33 C 1.569,0.49 1.923,3.021 0.733,3.021 -0.077,3.021 0,1.93 0,1.218 Z"
             style="fill:#ffffff;fill-opacity:1;fill-rule:nonzero;stroke:none"
             id="path58" /></g><g
           id="g60"
           transform="translate(143.6323,162.8277)"><path
             d="m 0,0 c 0,-1.06 0.354,-1.313 0.695,-1.313 0.393,0 0.621,0.363 0.848,0.363 0.254,0 0.431,-0.443 0.431,-0.727 0,-1.045 -1.443,-1.963 -2.722,-1.963 -0.645,0 -2.265,0.349 -2.265,2.865 v 3.259 c 0,0.285 0,0.396 -0.062,0.443 -0.064,0.047 -0.203,0.015 -0.494,0.015 -0.329,0 -0.493,-0.015 -0.557,0.064 -0.088,0.111 -0.063,0.269 -0.063,0.633 0,0.221 -0.038,0.395 0.114,0.522 l 2.885,2.294 c 0.291,0.222 0.278,0.174 0.658,0.174 C -0.026,6.629 0,6.692 0,5.965 0,5.474 -0.026,4.983 0.037,4.794 0.075,4.668 0.165,4.668 0.493,4.668 H 1.379 C 1.923,4.668 1.923,4.619 1.923,3.907 1.923,3.006 1.834,2.942 1.34,2.942 H 0.468 C 0.025,2.942 0,2.927 0,2.356 Z"
             style="fill:#ffffff;fill-opacity:1;fill-rule:nonzero;stroke:none"
             id="path62" /></g><g
           id="g64"
           transform="translate(149.353,167.4)"><path
             d="m 0,0 c 0.229,-0.048 0.431,-0.111 0.519,-0.111 0.127,0 0.229,0.049 0.342,0.111 0.114,0.047 0.228,0.096 0.342,0.096 0.582,0 1.164,-1.457 1.164,-2.105 0,-0.428 -0.291,-0.745 -0.62,-0.745 -0.722,0 -1.126,1.251 -1.683,1.251 -0.229,0 -0.456,-0.238 -0.456,-0.538 0,-1.013 2.785,-1.202 2.785,-3.655 0,-1.487 -1.152,-2.516 -2.468,-2.516 -0.254,0 -0.62,0.048 -0.937,0.111 -0.316,0.047 -0.595,0.095 -0.67,0.095 -0.089,0 -0.165,-0.015 -0.254,-0.031 -0.075,-0.017 -0.152,-0.032 -0.24,-0.032 -0.254,0 -0.38,0.048 -0.557,0.3 -0.316,0.444 -0.633,1.345 -0.633,1.947 0,0.411 0.114,0.743 0.481,0.743 0.557,0 1.064,-1.566 1.772,-1.566 0.253,0 0.493,0.159 0.493,0.506 0,0.934 -2.48,1.044 -2.48,3.655 0,1.582 1.037,2.58 2.341,2.58 C -0.505,0.096 -0.24,0.063 0,0"
             style="fill:#ffffff;fill-opacity:1;fill-rule:nonzero;stroke:none"
             id="path66" /></g><g
           id="g68"
           transform="translate(160.4683,165.0426)"><path
             d="m 0,0 c 0,0.569 -0.279,1.013 -0.747,1.013 -0.418,0 -0.759,-0.538 -0.759,-1.044 0,-0.571 0.43,-0.445 0.759,-0.445 C -0.405,-0.476 0,-0.569 0,0 m -1.102,-1.994 c -0.139,0 -0.341,0.048 -0.341,-0.221 0,-0.792 0.822,-1.456 1.418,-1.456 0.948,0 1.417,0.713 1.682,0.713 0.266,0 0.493,-0.491 0.493,-0.792 0,-1.218 -1.784,-2.104 -2.923,-2.104 -2.278,0 -3.454,2.056 -3.454,4.098 0,2.436 1.657,4.209 3.556,4.209 2.15,0 3.101,-2.074 3.101,-3.26 0,-1.045 -0.38,-1.187 -0.786,-1.187 z"
             style="fill:#ffffff;fill-opacity:1;fill-rule:nonzero;stroke:none"
             id="path70" /></g><g
           id="g72"
           transform="translate(167.1772,162.8277)"><path
             d="m 0,0 c 0,-1.06 0.354,-1.313 0.695,-1.313 0.393,0 0.621,0.363 0.848,0.363 0.254,0 0.431,-0.443 0.431,-0.727 0,-1.045 -1.443,-1.963 -2.721,-1.963 -0.646,0 -2.265,0.349 -2.265,2.865 v 3.259 c 0,0.285 0,0.396 -0.063,0.443 -0.064,0.047 -0.203,0.015 -0.493,0.015 -0.329,0 -0.494,-0.015 -0.558,0.064 -0.088,0.111 -0.062,0.269 -0.062,0.633 0,0.221 -0.039,0.395 0.113,0.522 l 2.885,2.294 c 0.291,0.222 0.278,0.174 0.658,0.174 C -0.025,6.629 0,6.692 0,5.965 0,5.474 -0.025,4.983 0.037,4.794 0.076,4.668 0.165,4.668 0.494,4.668 h 0.885 c 0.544,0 0.544,-0.049 0.544,-0.761 0,-0.901 -0.089,-0.965 -0.582,-0.965 H 0.468 C 0.025,2.942 0,2.927 0,2.356 Z"
             style="fill:#ffffff;fill-opacity:1;fill-rule:nonzero;stroke:none"
             id="path74" /></g><g
           id="g76"
           transform="translate(176.7471,163.856)"><path
             d="m 0,0 c -0.076,0.205 -0.214,0.681 -0.443,0.681 -0.392,0 -0.265,-2.089 -0.265,-2.611 0,-1.693 0.81,-0.903 0.81,-1.757 0,-0.902 -1.354,-0.933 -1.848,-0.933 -0.443,0 -1.594,0.048 -1.594,0.87 0,0.901 0.758,0.158 0.86,1.455 0.101,1.329 0.215,2.801 0.215,5.095 0,0.949 -0.05,1.44 -0.19,1.804 -0.127,0.333 -0.847,0.443 -0.847,1.091 0,0.903 1.176,1.123 2.188,1.123 1.481,0 1.456,-0.315 1.836,-1.123 C 1.165,4.762 1.949,2.168 2.506,2.01 2.898,1.898 3.417,3.813 3.872,4.857 4.518,6.345 4.53,6.818 6.201,6.818 6.758,6.818 8.023,6.771 8.023,5.774 8.023,5.142 7.454,5.016 7.327,4.478 7.226,4.034 7.137,2.168 7.137,1.456 c 0,-0.238 0.076,-1.978 0.127,-3.45 0.038,-1.155 0.798,-0.902 0.798,-1.613 0,-1.061 -1.735,-1.013 -2.291,-1.013 -0.519,0 -2.252,-0.064 -2.252,0.949 0,0.554 0.568,0.65 0.658,1.155 0.05,0.269 0.303,2.991 -0.14,2.991 -0.392,0 -0.797,-1.393 -1.101,-2.2 -0.278,-0.728 -0.734,-2.531 -1.139,-2.468 -0.203,0.031 -0.304,0 -1.063,2.135 z"
             style="fill:#ffffff;fill-opacity:1;fill-rule:nonzero;stroke:none"
             id="path78" /></g><g
           id="g80"
           transform="translate(187.7983,161.7984)"><path
             d="m 0,0 c 0,-0.41 0.177,-0.854 0.543,-0.854 0.481,0 0.519,0.649 0.519,1.124 0,0.347 0.013,0.743 -0.341,0.743 C 0.291,1.013 0,0.507 0,0 m 3.796,1.393 c 0,-2.785 0.76,-1.265 0.76,-2.12 0,-0.902 -0.987,-1.883 -1.912,-1.883 -0.999,0 -1.024,0.807 -1.341,0.807 -0.151,0 -0.316,-0.206 -0.595,-0.395 C 0.43,-2.404 0.05,-2.61 -0.532,-2.61 c -1.051,0 -2.1,0.696 -2.1,2.262 0,1.123 0.861,2.516 3.088,2.516 0.391,0 0.568,-0.031 0.568,0.538 0,0.522 -0.012,1.613 -0.594,1.613 -0.759,0 -0.835,-1.709 -1.962,-1.709 -0.404,0 -0.709,0.366 -0.709,0.871 0,1.345 2.139,2.216 3.342,2.216 0.721,0 2.695,-0.348 2.695,-2.721 z"
             style="fill:#ffffff;fill-opacity:1;fill-rule:nonzero;stroke:none"
             id="path82" /></g><g
           id="g84"
           transform="translate(196.6338,162.8277)"><path
             d="m 0,0 c 0,-1.06 0.354,-1.313 0.695,-1.313 0.393,0 0.621,0.363 0.848,0.363 0.254,0 0.43,-0.443 0.43,-0.727 0,-1.045 -1.442,-1.963 -2.721,-1.963 -0.645,0 -2.265,0.349 -2.265,2.865 v 3.259 c 0,0.285 0,0.396 -0.062,0.443 -0.064,0.047 -0.203,0.015 -0.494,0.015 -0.329,0 -0.493,-0.015 -0.557,0.064 -0.088,0.111 -0.063,0.269 -0.063,0.633 0,0.221 -0.038,0.395 0.114,0.522 l 2.885,2.294 c 0.291,0.222 0.278,0.174 0.658,0.174 C -0.026,6.629 0,6.692 0,5.965 0,5.474 -0.026,4.983 0.037,4.794 0.075,4.668 0.164,4.668 0.493,4.668 H 1.379 C 1.923,4.668 1.923,4.619 1.923,3.907 1.923,3.006 1.834,2.942 1.34,2.942 H 0.468 C 0.025,2.942 0,2.927 0,2.356 Z"
             style="fill:#ffffff;fill-opacity:1;fill-rule:nonzero;stroke:none"
             id="path86" /></g><g
           id="g88"
           transform="translate(203.1401,165.0426)"><path
             d="m 0,0 c 0,0.569 -0.279,1.013 -0.748,1.013 -0.417,0 -0.758,-0.538 -0.758,-1.044 0,-0.571 0.43,-0.445 0.758,-0.445 C -0.406,-0.476 0,-0.569 0,0 m -2.607,3.829 c 0,0.664 0.885,0.886 0.885,1.314 0,0.141 -0.101,0.189 -0.101,0.363 0,0.395 0.861,0.474 1.063,0.474 0.393,0 1.544,-0.158 1.544,-0.886 0,-0.395 -0.987,-1.851 -2.708,-1.851 -0.329,0 -0.683,0.079 -0.683,0.586 m 1.505,-5.823 c -0.139,0 -0.341,0.048 -0.341,-0.221 0,-0.792 0.822,-1.456 1.418,-1.456 0.948,0 1.417,0.713 1.682,0.713 0.266,0 0.493,-0.491 0.493,-0.792 0,-1.218 -1.784,-2.104 -2.923,-2.104 -2.278,0 -3.454,2.056 -3.454,4.098 0,2.436 1.657,4.209 3.556,4.209 2.15,0 3.101,-2.074 3.101,-3.26 0,-1.045 -0.38,-1.187 -0.786,-1.187 z"
             style="fill:#ffffff;fill-opacity:1;fill-rule:nonzero;stroke:none"
             id="path90" /></g><g
           id="g92"
           transform="translate(206.7358,164.2037)"><path
             d="m 0,0 c 0,1.551 -0.784,0.681 -0.784,1.646 0,1.25 2.96,1.597 3.075,1.597 0.48,0 0.493,-0.158 0.543,-0.696 0.013,-0.189 0,-0.554 0.216,-0.554 0.304,0 0.493,1.25 1.581,1.25 0.848,0 1.406,-0.791 1.406,-1.835 0,-1.059 -0.722,-1.898 -1.558,-1.898 -0.822,0 -1.049,0.902 -1.378,0.902 -0.355,0 -0.291,-1.06 -0.291,-1.346 0,-0.474 0.037,-1.138 0.101,-1.74 0.075,-0.695 1.038,-0.268 1.038,-1.219 0,-0.996 -1.115,-1.075 -2.507,-1.075 -0.581,0 -2.303,-0.031 -2.303,1.061 0,0.664 0.583,0.664 0.722,1.218 C -0.038,-2.294 0,-1.393 0,-0.949 Z"
             style="fill:#ffffff;fill-opacity:1;fill-rule:nonzero;stroke:none"
             id="path94" /></g><g
           id="g96"
           transform="translate(214.2178,167.9537)"><path
             d="m 0,0 c -0.532,0 -1.102,0.301 -1.102,1.076 0,1.044 1.671,1.472 2.316,1.472 0.507,0 1.228,-0.206 1.228,-0.997 C 2.442,0.316 0.721,0 0,0 m 2.505,-5.617 c 0,-1.867 0.747,-1.186 0.747,-2.026 0,-1.075 -1.607,-1.075 -2.177,-1.075 -2.177,0 -2.265,0.616 -2.265,0.997 0,0.57 0.519,0.602 0.671,1.091 0.165,0.554 0.19,2.849 0.051,3.434 -0.115,0.554 -0.76,0.38 -0.76,1.092 0,1.123 3.214,1.597 3.341,1.597 0.379,0 0.392,-0.363 0.392,-0.696 z"
             style="fill:#ffffff;fill-opacity:1;fill-rule:nonzero;stroke:none"
             id="path98" /></g><g
           id="g100"
           transform="translate(220.4199,161.7984)"><path
             d="m 0,0 c 0,-0.41 0.177,-0.854 0.543,-0.854 0.481,0 0.519,0.649 0.519,1.124 0,0.347 0.013,0.743 -0.341,0.743 C 0.291,1.013 0,0.507 0,0 m 3.796,1.393 c 0,-2.785 0.76,-1.265 0.76,-2.12 0,-0.902 -0.988,-1.883 -1.912,-1.883 -1,0 -1.025,0.807 -1.341,0.807 -0.152,0 -0.316,-0.206 -0.595,-0.395 C 0.43,-2.404 0.05,-2.61 -0.532,-2.61 c -1.051,0 -2.101,0.696 -2.101,2.262 0,1.123 0.862,2.516 3.088,2.516 0.392,0 0.569,-0.031 0.569,0.538 0,0.522 -0.012,1.613 -0.594,1.613 -0.759,0 -0.835,-1.709 -1.962,-1.709 -0.405,0 -0.709,0.366 -0.709,0.871 0,1.345 2.138,2.216 3.342,2.216 0.72,0 2.695,-0.348 2.695,-2.721 z"
             style="fill:#ffffff;fill-opacity:1;fill-rule:nonzero;stroke:none"
             id="path102" /></g><g
           id="g104"
           transform="translate(228.9629,162.8277)"><path
             d="m 0,0 c 0,-0.633 0.038,-1.614 0.722,-1.614 0.911,0 0.785,1.487 0.785,2.247 0,0.521 0.013,1.202 -0.051,1.709 -0.102,0.79 -0.722,0.521 -0.722,1.185 0,0.934 2.544,1.092 3.025,1.092 0.455,0 0.645,-0.332 0.645,-0.885 0,-0.506 -0.025,-0.997 -0.025,-1.504 v -3.18 c 0,-0.949 0.696,-0.506 0.696,-1.265 0,-1.076 -2.24,-1.377 -2.936,-1.377 -0.974,0 -0.329,0.949 -0.835,0.949 -0.139,0 -0.341,-0.237 -0.646,-0.474 -0.304,-0.237 -0.708,-0.475 -1.265,-0.475 -2.405,0 -2.202,2.373 -2.202,4.746 0,2.422 -0.873,1.361 -0.873,2.406 0,1.012 3.19,1.059 3.29,1.059 C -0.037,4.619 0,4.414 0,4.019 Z"
             style="fill:#ffffff;fill-opacity:1;fill-rule:nonzero;stroke:none"
             id="path106" /></g><g
           id="g108"
           transform="translate(241.127,161.5142)"><path
             d="m 0,0 c 0.607,-0.98 1.038,-0.649 1.038,-1.297 0,-0.412 -0.013,-0.981 -2.544,-0.981 -0.544,0 -2.126,-0.143 -2.126,0.902 0,0.568 0.519,0.396 0.519,0.885 0,0.301 -0.443,1.203 -0.684,1.203 -0.227,0 -0.759,-1.14 -0.759,-1.455 0,-0.333 0.291,-0.349 0.291,-0.84 0,-0.68 -0.974,-0.695 -1.353,-0.695 -0.444,0 -1.342,0 -1.342,0.774 0,0.824 0.607,0.144 1.189,1.314 l 1.025,2.088 c 0.025,0.033 0.152,0.27 0.152,0.349 0,0.11 -0.152,0.284 -0.189,0.348 l -0.81,1.25 c -0.456,0.712 -1.216,0.348 -1.216,1.124 0,1.012 2.178,0.964 2.721,0.964 0.431,0 2,0.079 2,-0.791 0,-0.331 -0.254,-0.538 -0.254,-0.776 0,-0.189 0.355,-0.838 0.507,-0.838 0.177,0 0.569,0.712 0.569,0.917 0,0.238 -0.265,0.475 -0.265,0.744 0,0.744 0.949,0.744 1.341,0.744 C 0.797,5.933 1,5.585 1,5.174 1,4.604 0.278,4.62 -0.076,3.972 L -0.797,2.658 c -0.051,-0.079 -0.304,-0.49 -0.304,-0.601 0,-0.095 0.215,-0.444 0.241,-0.506 z"
             style="fill:#ffffff;fill-opacity:1;fill-rule:nonzero;stroke:none"
             id="path110" /></g><g
           id="g112"
           transform="translate(250.4697,165.7701)"><path
             d="m 0,0 c -0.848,0 -0.999,-1.819 -0.999,-2.563 0,-0.744 0.151,-2.041 0.936,-2.041 0.848,0 0.797,1.946 0.797,2.642 C 0.734,-1.345 0.734,0 0,0 m 3.531,-3.686 c 0,-1.108 0.67,-0.744 0.67,-1.567 0,-1.202 -2.77,-1.281 -2.911,-1.281 -0.644,0 -0.188,0.87 -0.606,0.87 -0.115,0 -0.304,-0.222 -0.595,-0.459 -0.291,-0.222 -0.684,-0.459 -1.241,-0.459 -1.657,0 -2.948,2.2 -2.948,4.145 0,2.105 1.367,4.163 3.113,4.163 0.873,0 1.367,-0.476 1.506,-0.476 0.19,0 0.203,0.522 0.203,0.696 0,0.981 -0.924,0.459 -0.924,1.314 0,1.171 3.226,1.471 3.265,1.471 0.379,0 0.468,-0.333 0.468,-0.854 z"
             style="fill:#ffffff;fill-opacity:1;fill-rule:nonzero;stroke:none"
             id="path114" /></g><g
           id="g116"
           transform="translate(259.2432,165.0426)"><path
             d="m 0,0 c 0,0.569 -0.279,1.013 -0.747,1.013 -0.418,0 -0.76,-0.538 -0.76,-1.044 0,-0.571 0.431,-0.445 0.76,-0.445 C -0.405,-0.476 0,-0.569 0,0 m -1.102,-1.994 c -0.139,0 -0.341,0.048 -0.341,-0.221 0,-0.792 0.822,-1.456 1.418,-1.456 0.948,0 1.417,0.713 1.682,0.713 0.266,0 0.493,-0.491 0.493,-0.792 0,-1.218 -1.784,-2.104 -2.922,-2.104 -2.279,0 -3.455,2.056 -3.455,4.098 0,2.436 1.657,4.209 3.556,4.209 2.15,0 3.101,-2.074 3.101,-3.26 0,-1.045 -0.38,-1.187 -0.786,-1.187 z"
             style="fill:#ffffff;fill-opacity:1;fill-rule:nonzero;stroke:none"
             id="path118" /></g><g
           id="g120"
           transform="translate(271.0791,170.7222)"><path
             d="m 0,0 c 1.239,0 2.036,-0.774 2.365,-0.774 0.279,0 0.355,0.109 0.571,0.109 0.531,0 1.214,-0.996 1.214,-2.752 0,-0.901 -0.43,-1.661 -1.177,-1.661 -1.304,0 -0.975,2.8 -3.227,2.8 -0.975,0 -1.379,-1.139 -1.379,-2.01 0,-2.341 1,-4.335 2.772,-4.335 1.606,0 1.846,1.092 2.239,1.092 0.367,0 0.544,-0.538 0.544,-0.934 0,-0.696 -0.582,-2.151 -1.215,-2.151 -0.43,0 -1.315,-0.918 -2.81,-0.918 -2.656,0 -4.834,2.627 -4.834,5.806 C -4.937,-2.483 -2.494,0 0,0"
             style="fill:#ffffff;fill-opacity:1;fill-rule:nonzero;stroke:none"
             id="path122" /></g><g
           id="g124"
           transform="translate(279.168,165.6285)"><path
             d="m 0,0 c -0.419,0 -0.646,-0.491 -0.62,-0.95 0.05,-0.996 0.278,-3.434 1.151,-3.496 0.482,-0.032 0.582,0.474 0.582,0.981 C 1.113,-2.754 0.859,0 0,0 m -3.531,-2.563 c 0,2.832 1.986,4.43 4.074,4.43 2.216,0 3.48,-2.168 3.48,-4.13 0,-2.594 -2.226,-4.177 -4.087,-4.177 -1.873,0 -3.467,1.377 -3.467,3.877"
             style="fill:#ffffff;fill-opacity:1;fill-rule:nonzero;stroke:none"
             id="path126" /></g><g
           id="g128"
           transform="translate(287.1934,162.0523)"><path
             d="m 0,0 c 0,-1.535 0.43,-1.267 0.43,-1.867 0,-0.981 -1.684,-0.949 -2.202,-0.949 -0.506,0 -1.797,0 -1.797,0.949 0,0.759 0.582,0.079 0.62,1.63 l 0.051,2.373 c 0.024,1.171 -0.748,0.791 -0.748,1.63 0,0.838 2.911,1.629 3.165,1.629 0.278,0 0.456,-0.3 0.456,-0.617 0,-0.095 -0.014,-0.189 -0.014,-0.285 0,-0.19 0.064,-0.411 0.253,-0.411 0.203,0 0.316,0.332 0.57,0.665 0.253,0.315 0.633,0.648 1.355,0.648 2.618,0 2.175,-3.211 2.301,-5.617 0.065,-1.25 0.583,-0.965 0.583,-1.645 0,-0.284 0.05,-0.949 -2.329,-0.949 -0.455,0 -1.67,-0.032 -1.67,0.853 0,0.57 0.418,0.301 0.481,1.33 C 1.568,0.49 1.923,3.021 0.733,3.021 -0.077,3.021 0,1.93 0,1.218 Z"
             style="fill:#ffffff;fill-opacity:1;fill-rule:nonzero;stroke:none"
             id="path130" /></g><g
           id="g132"
           transform="translate(296.0029,167.4)"><path
             d="m 0,0 c 0.228,-0.048 0.431,-0.111 0.519,-0.111 0.127,0 0.228,0.049 0.341,0.111 0.115,0.047 0.229,0.096 0.342,0.096 0.582,0 1.165,-1.457 1.165,-2.105 0,-0.428 -0.291,-0.745 -0.62,-0.745 -0.722,0 -1.126,1.251 -1.684,1.251 -0.228,0 -0.455,-0.238 -0.455,-0.538 0,-1.013 2.785,-1.202 2.785,-3.655 0,-1.487 -1.153,-2.516 -2.468,-2.516 -0.254,0 -0.62,0.048 -0.937,0.111 -0.316,0.047 -0.595,0.095 -0.671,0.095 -0.088,0 -0.165,-0.015 -0.254,-0.031 -0.075,-0.017 -0.151,-0.032 -0.24,-0.032 -0.253,0 -0.38,0.048 -0.556,0.3 -0.317,0.444 -0.633,1.345 -0.633,1.947 0,0.411 0.114,0.743 0.48,0.743 0.558,0 1.064,-1.566 1.773,-1.566 0.253,0 0.493,0.159 0.493,0.506 0,0.934 -2.48,1.044 -2.48,3.655 0,1.582 1.037,2.58 2.341,2.58 C -0.506,0.096 -0.24,0.063 0,0"
             style="fill:#ffffff;fill-opacity:1;fill-rule:nonzero;stroke:none"
             id="path134" /></g><g
           id="g136"
           transform="translate(302.7881,162.8277)"><path
             d="m 0,0 c 0,-1.06 0.354,-1.313 0.695,-1.313 0.393,0 0.621,0.363 0.849,0.363 0.253,0 0.431,-0.443 0.431,-0.727 0,-1.045 -1.444,-1.963 -2.722,-1.963 -0.646,0 -2.265,0.349 -2.265,2.865 v 3.259 c 0,0.285 0,0.396 -0.063,0.443 -0.064,0.047 -0.202,0.015 -0.493,0.015 -0.329,0 -0.494,-0.015 -0.558,0.064 -0.088,0.111 -0.062,0.269 -0.062,0.633 0,0.221 -0.039,0.395 0.113,0.522 l 2.886,2.294 c 0.291,0.222 0.278,0.174 0.658,0.174 C -0.025,6.629 0,6.692 0,5.965 0,5.474 -0.025,4.983 0.037,4.794 0.075,4.668 0.165,4.668 0.494,4.668 h 0.885 c 0.545,0 0.545,-0.049 0.545,-0.761 0,-0.901 -0.09,-0.965 -0.583,-0.965 H 0.468 C 0.025,2.942 0,2.927 0,2.356 Z"
             style="fill:#ffffff;fill-opacity:1;fill-rule:nonzero;stroke:none"
             id="path138" /></g><g
           id="g140"
           transform="translate(305.8398,164.2037)"><path
             d="m 0,0 c 0,1.551 -0.784,0.681 -0.784,1.646 0,1.25 2.96,1.597 3.074,1.597 0.481,0 0.494,-0.158 0.544,-0.696 0.013,-0.189 0,-0.554 0.216,-0.554 0.303,0 0.493,1.25 1.581,1.25 0.848,0 1.405,-0.791 1.405,-1.835 0,-1.059 -0.722,-1.898 -1.557,-1.898 -0.823,0 -1.049,0.902 -1.378,0.902 -0.355,0 -0.291,-1.06 -0.291,-1.346 0,-0.474 0.037,-1.138 0.1,-1.74 0.075,-0.695 1.038,-0.268 1.038,-1.219 0,-0.996 -1.114,-1.075 -2.506,-1.075 -0.582,0 -2.303,-0.031 -2.303,1.061 0,0.664 0.583,0.664 0.721,1.218 0.102,0.395 0.14,1.296 0.14,1.74 z"
             style="fill:#ffffff;fill-opacity:1;fill-rule:nonzero;stroke:none"
             id="path142" /></g><g
           id="g144"
           transform="translate(316.041,162.8277)"><path
             d="m 0,0 c 0,-0.633 0.038,-1.614 0.722,-1.614 0.911,0 0.784,1.487 0.784,2.247 0,0.521 0.013,1.202 -0.05,1.709 -0.102,0.79 -0.722,0.521 -0.722,1.185 0,0.934 2.543,1.092 3.025,1.092 0.455,0 0.645,-0.332 0.645,-0.885 0,-0.506 -0.025,-0.997 -0.025,-1.504 v -3.18 c 0,-0.949 0.696,-0.506 0.696,-1.265 0,-1.076 -2.24,-1.377 -2.936,-1.377 -0.975,0 -0.329,0.949 -0.835,0.949 -0.14,0 -0.341,-0.237 -0.646,-0.474 -0.304,-0.237 -0.708,-0.475 -1.265,-0.475 -2.405,0 -2.202,2.373 -2.202,4.746 0,2.422 -0.874,1.361 -0.874,2.406 0,1.012 3.191,1.059 3.291,1.059 C -0.037,4.619 0,4.414 0,4.019 Z"
             style="fill:#ffffff;fill-opacity:1;fill-rule:nonzero;stroke:none"
             id="path146" /></g><g
           id="g148"
           transform="translate(325.168,167.4957)"><path
             d="m 0,0 c 1.898,0 2.897,-1.313 2.897,-2.422 0,-0.886 -0.531,-1.566 -1.239,-1.566 -1.367,0 -0.734,1.963 -1.734,1.963 -0.557,0 -0.861,-0.713 -0.861,-1.346 0,-1.171 0.696,-2.357 1.696,-2.357 0.798,0 1.063,0.411 1.329,0.411 0.342,0 0.569,-0.475 0.569,-0.855 0,-0.933 -1.138,-2.136 -2.911,-2.136 -1.91,0 -3.454,1.756 -3.454,4.178 C -3.708,-1.852 -2.126,0 0,0"
             style="fill:#ffffff;fill-opacity:1;fill-rule:nonzero;stroke:none"
             id="path150" /></g><g
           id="g152"
           transform="translate(332.3457,162.8277)"><path
             d="m 0,0 c 0,-1.06 0.354,-1.313 0.695,-1.313 0.393,0 0.62,0.363 0.848,0.363 0.254,0 0.43,-0.443 0.43,-0.727 0,-1.045 -1.443,-1.963 -2.72,-1.963 -0.646,0 -2.266,0.349 -2.266,2.865 v 3.259 c 0,0.285 0,0.396 -0.062,0.443 -0.064,0.047 -0.203,0.015 -0.494,0.015 -0.329,0 -0.493,-0.015 -0.557,0.064 -0.088,0.111 -0.062,0.269 -0.062,0.633 0,0.221 -0.04,0.395 0.113,0.522 l 2.885,2.294 c 0.291,0.222 0.278,0.174 0.658,0.174 C -0.025,6.629 0,6.692 0,5.965 0,5.474 -0.025,4.983 0.037,4.794 0.075,4.668 0.164,4.668 0.493,4.668 h 0.886 c 0.544,0 0.544,-0.049 0.544,-0.761 0,-0.901 -0.089,-0.965 -0.582,-0.965 H 0.468 C 0.025,2.942 0,2.927 0,2.356 Z"
             style="fill:#ffffff;fill-opacity:1;fill-rule:nonzero;stroke:none"
             id="path154" /></g><g
           id="g156"
           transform="translate(335.7637,167.9537)"><path
             d="m 0,0 c -0.531,0 -1.102,0.301 -1.102,1.076 0,1.044 1.671,1.472 2.317,1.472 0.506,0 1.227,-0.206 1.227,-0.997 C 2.442,0.316 0.721,0 0,0 m 2.506,-5.617 c 0,-1.867 0.747,-1.186 0.747,-2.026 0,-1.075 -1.608,-1.075 -2.178,-1.075 -2.177,0 -2.264,0.616 -2.264,0.997 0,0.57 0.518,0.602 0.67,1.091 0.165,0.554 0.19,2.849 0.051,3.434 -0.114,0.554 -0.76,0.38 -0.76,1.092 0,1.123 3.214,1.597 3.341,1.597 0.38,0 0.393,-0.363 0.393,-0.696 z"
             style="fill:#ffffff;fill-opacity:1;fill-rule:nonzero;stroke:none"
             id="path158" /></g><g
           id="g160"
           transform="translate(342.915,165.6285)"><path
             d="m 0,0 c -0.418,0 -0.646,-0.491 -0.62,-0.95 0.05,-0.996 0.278,-3.434 1.151,-3.496 0.482,-0.032 0.582,0.474 0.582,0.981 C 1.113,-2.754 0.859,0 0,0 m -3.53,-2.563 c 0,2.832 1.985,4.43 4.074,4.43 2.215,0 3.48,-2.168 3.48,-4.13 0,-2.594 -2.227,-4.177 -4.087,-4.177 -1.874,0 -3.467,1.377 -3.467,3.877"
             style="fill:#ffffff;fill-opacity:1;fill-rule:nonzero;stroke:none"
             id="path162" /></g><g
           id="g164"
           transform="translate(350.9404,162.0523)"><path
             d="m 0,0 c 0,-1.535 0.43,-1.267 0.43,-1.867 0,-0.981 -1.684,-0.949 -2.201,-0.949 -0.507,0 -1.797,0 -1.797,0.949 0,0.759 0.581,0.079 0.619,1.63 l 0.051,2.373 c 0.025,1.171 -0.748,0.791 -0.748,1.63 0,0.838 2.912,1.629 3.165,1.629 0.278,0 0.456,-0.3 0.456,-0.617 0,-0.095 -0.013,-0.189 -0.013,-0.285 0,-0.19 0.063,-0.411 0.253,-0.411 0.202,0 0.315,0.332 0.569,0.665 0.253,0.315 0.633,0.648 1.355,0.648 2.619,0 2.175,-3.211 2.302,-5.617 0.064,-1.25 0.582,-0.965 0.582,-1.645 0,-0.284 0.051,-0.949 -2.328,-0.949 -0.456,0 -1.671,-0.032 -1.671,0.853 0,0.57 0.418,0.301 0.481,1.33 C 1.568,0.49 1.923,3.021 0.733,3.021 -0.076,3.021 0,1.93 0,1.218 Z"
             style="fill:#ffffff;fill-opacity:1;fill-rule:nonzero;stroke:none"
             id="path166" /></g><g
           id="g168"
           transform="translate(137.1279,212.9791)"><path
             d="m 0,0 v 17.174 c 0,2.314 -1.432,3.472 -4.295,3.472 -2.863,0 -4.295,-1.158 -4.295,-3.472 V 0 Z M 14.847,-28.718 H 0 v 21.679 h -8.59 v -21.679 h -14.847 v 45.704 c 0,3.691 2.262,6.507 6.787,8.447 3.606,1.501 7.742,2.252 12.408,2.252 4.596,0 8.696,-0.751 12.302,-2.252 4.523,-1.94 6.787,-4.756 6.787,-8.447 z"
             style="fill:#211b46;fill-opacity:1;fill-rule:nonzero;stroke:none"
             id="path170" /></g><g
           id="g172"
           transform="translate(196.5156,232.0299)"><path
             d="M 0,0 H -12.726 V -47.769 H -27.573 V 0 H -40.406 V 7.039 H 0 Z"
             style="fill:#211b46;fill-opacity:1;fill-rule:nonzero;stroke:none"
             id="path174" /></g><g
           id="g176"
           transform="translate(238.6182,227.338)"><path
             d="M 0,0 V -8.541 H -14.848 V 3.566 c 0,2.252 -1.415,3.378 -4.242,3.378 -2.829,0 -4.242,-1.126 -4.242,-3.378 v -37.633 c 0,-2.315 1.413,-3.473 4.242,-3.473 2.827,0 4.242,1.158 4.242,3.473 v 12.294 H 0 v -12.013 c 0,-7.195 -6.364,-10.792 -19.09,-10.792 -12.726,0 -19.089,3.597 -19.089,10.792 V 2.909 c 0,6.945 6.363,10.417 19.089,10.417 C -6.364,13.326 0,8.883 0,0"
             style="fill:#211b46;fill-opacity:1;fill-rule:nonzero;stroke:none"
             id="path178" /></g><g
           id="g180"
           transform="translate(326.001,227.338)"><path
             d="m 0,0 v -6.664 h -14.422 v 6.194 c 0,4.881 -1.697,7.321 -5.092,7.321 -2.968,0 -4.453,-1.347 -4.453,-4.036 v -3.753 c 0,-2.879 2.084,-5.882 6.257,-9.01 l 11.241,-7.695 c 4.03,-3.13 6.045,-6.101 6.045,-8.916 v -7.508 c 0,-7.008 -6.363,-10.511 -19.09,-10.511 -12.937,0 -19.406,4.536 -19.406,13.608 v 7.32 h 15.165 v -10.698 c 0,-2.253 1.413,-3.379 4.241,-3.379 3.252,0 4.879,1.563 4.879,4.692 v 4.317 c 0,2.065 -2.157,4.63 -6.469,7.695 l -11.241,7.79 c -4.031,3.253 -6.046,6.443 -6.046,9.573 v 6.569 c 0,6.945 6.293,10.417 18.877,10.417 6.365,0 11.031,-0.845 13.999,-2.534 C -1.839,8.728 0,5.129 0,0"
             style="fill:#211b46;fill-opacity:1;fill-rule:nonzero;stroke:none"
             id="path182" /></g><g
           id="g184"
           transform="translate(364.0723,184.2613)"><path
             d="M 0,0 H -32.77 V 54.713 H 0 V 47.3 H -17.923 V 33.504 H -0.425 V 26.277 H -17.923 V 7.509 L 0,7.509 Z"
             style="fill:#211b46;fill-opacity:1;fill-rule:nonzero;stroke:none"
             id="path186" /></g><g
           id="g188"
           transform="translate(407.4453,184.2613)"><path
             d="m 0,0 h -14.847 v 45.897 c 0,2.312 -1.431,3.467 -4.295,3.467 -2.863,0 -4.295,-1.155 -4.295,-3.467 V 0 h -14.847 v 45.704 c 0,3.691 2.262,6.506 6.788,8.446 3.605,1.502 7.742,2.253 12.407,2.253 4.596,0 8.696,-0.751 12.302,-2.253 C -2.263,52.21 0,49.395 0,45.704 Z"
             style="fill:#211b46;fill-opacity:1;fill-rule:nonzero;stroke:none"
             id="path190" /></g><g
           id="g192"
           transform="translate(100.2183,274.6822)"><path
             d="M 0,0 H -12.44 V -12.438 L 0,-12.437 Z"
             style="fill:#221c45;fill-opacity:1;fill-rule:nonzero;stroke:none"
             id="path194" /></g><g
           id="g196"
           transform="translate(116.7881,267.0455)"><path
             d="M 0,0 H -8.147 V -8.149 L 0.001,-8.15 Z"
             style="fill:#221c45;fill-opacity:1;fill-rule:nonzero;stroke:none"
             id="path198" /></g><g
           id="g200"
           transform="translate(96.6157,247.2559)"><path
             d="M 0,0 9.392,-0.001 9.391,9.39 0,9.391 Z"
             style="fill:#221c45;fill-opacity:1;fill-rule:nonzero;stroke:none"
             id="path202" /></g><g
           id="g204"
           transform="translate(92.3984,196.7222)"><path
             d="M 0,0 V 0 H -15.05 V 30.102 L -30.101,15.051 h -0.002 L -45.152,30.102 V 0 h -15.052 l -10e-4,45.153 15.053,-10e-4 15.049,-15.049 0.002,-0.001 15.051,15.05 15.051,10e-4 z M 0.001,60.205 H -15.05 l -15.051,-15.052 -0.002,0.001 -15.051,15.051 h -30.102 l 0.001,-75.256 h 30.103 l 15.049,15.05 0.002,0.001 15.048,-15.051 H 15.052 V 45.154 H 0.002 Z"
             style="fill:#be1622;fill-opacity:1;fill-rule:nonzero;stroke:none"
             id="path206" /></g><g
           id="g208"><g
             id="g210" /><g
             id="g230"><g
               clip-path="url(#clipPath214)"
               id="g228"><g
                 transform="translate(48.5591,223.6544)"
                 id="g218"><path
                   d="m 0,0 v -15.906 c 1.032,-0.504 2.068,-0.998 3.112,-1.475 0.963,-0.389 2.636,-1.072 3.262,-1.296 6.305,-2.269 12.757,-3.957 19.356,-5.044 0.581,-0.063 1.164,-0.112 1.747,-0.163 l 0,23.884 -13.74,-13.738 z"
                   style="fill:#be1622;fill-opacity:1;fill-rule:nonzero;stroke:none"
                   id="path216" /></g><g
                 transform="translate(94.9727,199.8678)"
                 id="g222"><path
                   d="m 0,0 c 3.765,0.629 7.494,1.47 11.165,2.516 v 38.18 H -1.26 V -0.113 C -0.841,-0.075 -0.42,-0.043 0,0"
                   style="fill:#be1622;fill-opacity:1;fill-rule:nonzero;stroke:none"
                   id="path220" /></g><g
                 transform="translate(21.9111,226.4293)"
                 id="g226"><path
                   d="m 0,0 c 2.841,-2.577 5.661,-5.194 8.649,-7.602 0.089,-0.071 0.2,-0.158 0.32,-0.252 V 16.759 L 25.88,16.758 40.386,2.252 54.894,16.758 69.177,16.759 69.175,29.185 H 55.981 L 40.385,13.59 24.79,29.185 H -3.456 L -3.455,3.246 C -2.322,2.146 -1.171,1.062 0,0"
                   style="fill:#be1622;fill-opacity:1;fill-rule:nonzero;stroke:none"
                   id="path224" /></g></g></g></g><g
           id="g232"
           transform="translate(279.5322,235.9683)"><path
             d="m 0,0 h -8.241 v -9.419 c 0,-0.439 0.185,-0.848 0.487,-1.052 4.731,-3.188 7.917,-9.175 7.917,-16.038 0,-6.278 -2.669,-11.823 -6.745,-15.163 -0.457,-0.375 -1.055,0.039 -1.055,0.736 v 13.162 c 0,0.305 -0.12,0.591 -0.319,0.757 l -7.352,6.178 c -0.167,0.14 -0.382,0.14 -0.549,0 l -7.351,-6.178 c -0.199,-0.166 -0.319,-0.452 -0.319,-0.757 v -13.162 c 0,-0.697 -0.598,-1.111 -1.055,-0.736 -4.076,3.34 -6.745,8.885 -6.745,15.163 0,6.863 3.186,12.85 7.917,16.038 0.302,0.204 0.486,0.613 0.486,1.052 V 0 h -8.24 c -2.006,0 -3.631,-2.094 -3.631,-4.677 v -40.137 c 0,-2.584 1.625,-4.677 3.631,-4.677 H 0 c 2.006,0 3.631,2.093 3.631,4.677 V -4.677 C 3.631,-2.094 2.006,0 0,0"
             style="fill:#be1622;fill-opacity:1;fill-rule:nonzero;stroke:none"
             id="path234" /></g><g
           id="g236"
           transform="translate(279.5322,235.9683)"><path
             d="m 0,0 h -8.241 v -9.419 c 0,-0.439 0.185,-0.848 0.487,-1.052 4.731,-3.188 7.917,-9.175 7.917,-16.038 0,-6.278 -2.669,-11.823 -6.745,-15.163 -0.457,-0.375 -1.055,0.039 -1.055,0.736 v 13.162 c 0,0.305 -0.12,0.591 -0.319,0.757 l -7.352,6.178 c -0.167,0.14 -0.382,0.14 -0.549,0 l -7.351,-6.178 c -0.199,-0.166 -0.319,-0.452 -0.319,-0.757 v -13.162 c 0,-0.697 -0.598,-1.111 -1.055,-0.736 -4.076,3.34 -6.745,8.885 -6.745,15.163 0,6.863 3.186,12.85 7.917,16.038 0.302,0.204 0.486,0.613 0.486,1.052 V 0 h -8.24 c -2.006,0 -3.631,-2.094 -3.631,-4.677 v -40.137 c 0,-2.584 1.625,-4.677 3.631,-4.677 H 0 c 2.006,0 3.631,2.093 3.631,4.677 V -4.677 C 3.631,-2.094 2.006,0 0,0"
             style="fill:#be1622;fill-opacity:1;fill-rule:nonzero;stroke:none"
             id="path238" /></g><path
           d="m 260.63,202.408 h 2.956 v 3.993 h -2.956 z"
           style="fill:#ffffff;fill-opacity:1;fill-rule:nonzero;stroke:none"
           id="path240" /><path
           d="m 264.315,197.545 h 2.955 v 3.993 h -2.955 z"
           style="fill:#ffffff;fill-opacity:1;fill-rule:nonzero;stroke:none"
           id="path242" /><path
           d="m 260.63,197.545 h 2.956 v 3.993 h -2.956 z"
           style="fill:#ffffff;fill-opacity:1;fill-rule:nonzero;stroke:none"
           id="path244" /><path
           d="m 264.315,202.408 h 2.955 v 3.993 h -2.955 z"
           style="fill:#ffffff;fill-opacity:1;fill-rule:nonzero;stroke:none"
           id="path246" /><g
           id="g248"><g
             id="g250" /><g
             id="g262"><g
               clip-path="url(#clipPath254)"
               opacity="0.199997"
               id="g260"><g
                 transform="translate(282.7256,191.1539)"
                 id="g258"><path
                   d="m 0,0 c 0,-2.269 -1.433,-4.113 -3.193,-4.113 h -31.164 c -1.761,0 -3.194,1.844 -3.194,4.113 v 40.138 c 0,2.268 1.433,4.113 3.194,4.113 h 7.802 v -8.856 c 0,-0.235 -0.096,-0.447 -0.252,-0.552 -5.028,-3.389 -8.151,-9.726 -8.151,-16.537 0,-6.228 2.598,-12.075 6.948,-15.639 0.183,-0.15 0.392,-0.229 0.605,-0.229 0.619,0 1.123,0.646 1.123,1.441 V 17.04 c 0,0.115 0.045,0.223 0.12,0.286 l 7.35,6.177 c 0.014,0.012 0.028,0.014 0.037,0.014 0.008,0 0.022,-0.002 0.036,-0.014 l 7.35,-6.177 c 0.076,-0.063 0.12,-0.171 0.12,-0.286 V 3.879 c 0,-0.795 0.504,-1.441 1.123,-1.441 0.212,0 0.422,0.079 0.605,0.229 4.351,3.564 6.948,9.411 6.948,15.639 0,6.811 -3.123,13.148 -8.151,16.537 -0.156,0.105 -0.253,0.317 -0.253,0.552 v 8.856 h 7.804 C -1.433,44.251 0,42.406 0,40.138 Z m -3.193,44.814 h -8.242 v -9.419 c 0,-0.438 0.186,-0.847 0.488,-1.051 4.73,-3.189 7.917,-9.176 7.917,-16.038 0,-6.279 -2.669,-11.824 -6.745,-15.163 -0.119,-0.098 -0.246,-0.142 -0.371,-0.142 -0.356,0 -0.684,0.361 -0.684,0.878 V 17.04 c 0,0.306 -0.12,0.592 -0.319,0.758 l -7.352,6.178 c -0.083,0.07 -0.179,0.105 -0.274,0.105 -0.096,0 -0.192,-0.035 -0.276,-0.105 l -7.35,-6.178 c -0.2,-0.166 -0.32,-0.452 -0.32,-0.758 V 3.879 c 0,-0.517 -0.328,-0.878 -0.684,-0.878 -0.124,0 -0.252,0.044 -0.37,0.142 -4.077,3.339 -6.746,8.884 -6.746,15.163 0,6.862 3.187,12.849 7.917,16.038 0.302,0.204 0.487,0.613 0.487,1.051 v 9.419 h -8.24 c -2.006,0 -3.631,-2.093 -3.631,-4.676 V 0 c 0,-2.584 1.625,-4.677 3.631,-4.677 h 31.164 c 2.006,0 3.63,2.093 3.63,4.677 v 40.138 c 0,2.583 -1.624,4.676 -3.63,4.676"
                   style="fill:#ffffff;fill-opacity:1;fill-rule:nonzero;stroke:none"
                   id="path256" /></g></g></g></g><g
           id="g264"
           transform="translate(284.4756,191.1539)"><path
             d="m 0,0 c 0,-3.512 -2.218,-6.368 -4.943,-6.368 h -31.164 c -2.727,0 -4.944,2.856 -4.944,6.368 v 40.138 c 0,3.511 2.217,6.367 4.944,6.367 h 4.833 3.407 14.682 3.356 4.886 C -2.218,46.505 0,43.649 0,40.138 Z m -4.943,47.915 h -4.886 -3.356 -14.682 -3.407 -4.833 c -3.33,0 -6.039,-3.489 -6.039,-7.777 V 0 c 0,-4.289 2.709,-7.777 6.039,-7.777 h 31.164 c 3.329,0 6.038,3.488 6.038,7.777 v 40.138 c 0,4.288 -2.709,7.777 -6.038,7.777"
             style="fill:#221c45;fill-opacity:1;fill-rule:nonzero;stroke:none"
             id="path266" /></g><g
           id="g268"><g
             id="g270" /><g
             id="g286"><g
               clip-path="url(#clipPath274)"
               opacity="0.100006"
               id="g284"><g
                 transform="translate(279.5322,235.9683)"
                 id="g278"><path
                   d="m 0,0 h -8.241 v -9.419 c 0,-0.439 0.185,-0.848 0.487,-1.052 4.731,-3.188 7.917,-9.175 7.917,-16.038 0,-4.905 -1.629,-9.363 -4.286,-12.672 l 6.695,-8.933 c 0.655,0.845 1.059,2.011 1.059,3.3 V -4.677 C 3.631,-2.094 2.006,0 0,0"
                   style="fill:#ffffff;fill-opacity:1;fill-rule:nonzero;stroke:none"
                   id="path276" /></g><g
                 transform="translate(254.7021,224.4146)"
                 id="g282"><path
                   d="m 0,0 c 0.456,0.389 0.929,0.752 1.42,1.083 0.302,0.204 0.486,0.613 0.486,1.051 v 9.42 h -8.24 c -0.672,0 -1.3,-0.24 -1.839,-0.649 z"
                   style="fill:#ffffff;fill-opacity:1;fill-rule:nonzero;stroke:none"
                   id="path280" /></g></g></g></g><path
           d="M 381.271,172.906 H 44.109 v 3.576 h 337.162 z"
           style="fill:#211b46;fill-opacity:1;fill-rule:nonzero;stroke:none"
           id="path288" /></g></g></g></svg>
